{
  "source": "C:\\Users\\Peter\\Desktop\\stuff\\MIUN\\quantitative_research\\video_compression\\videos\\BVI-HD\\BVI-HD_CDVL_videos\\ORIG\\TreeTrunk_1920x1080_50fps.mp4",
  "output": "C:\\Users\\Peter\\Desktop\\stuff\\MIUN\\quantitative_research\\video_compression\\compressed_videos\\BVI-HD\\vp9\\3\\TreeTrunk_1920x1080_50fps_vp9.webm",
  "codec": "vp9",
  "ok": "Input #0, mov,mp4,m4a,3gp,3g2,mj2, from 'C:\\Users\\Peter\\Desktop\\stuff\\MIUN\\quantitative_research\\video_compression\\videos\\BVI-HD\\BVI-HD_CDVL_videos\\ORIG\\TreeTrunk_1920x1080_50fps.mp4':\n  Metadata:\n    major_brand     : isom\n    minor_version   : 512\n    compatible_brands: isomiso2avc1mp41\n    encoder         : Lavf54.28.101\n  Duration: 00:00:05.00, start: 0.000000, bitrate: 622415 kb/s\n  Stream #0:0[0x1](und): Video: h264 (High 4:4:4 Predictive) (avc1 / 0x31637661), yuv420p(progressive), 1920x1080, 622410 kb/s, 50 fps, 50 tbr, 50 tbn (default)\n    Metadata:\n      handler_name    : VideoHandler\n      vendor_id       : [0][0][0][0]\n[out#0/webm @ 00000220a21ff040] Codec AVOption b:a (set bitrate (in bits/s)) has not been used for any stream. The most likely reason is either wrong type (e.g. a video option with no video streams) or that it is a private option of some decoder which was not actually used for any stream.\nStream mapping:\n  Stream #0:0 -> #0:0 (h264 (native) -> vp9 (libvpx-vp9))\nPress [q] to stop, [?] for help\n[libvpx-vp9 @ 00000220a2000a80] v1.15.2-100-g40561f514\nOutput #0, webm, to 'C:\\Users\\Peter\\Desktop\\stuff\\MIUN\\quantitative_research\\video_compression\\compressed_videos\\BVI-HD\\vp9\\3\\TreeTrunk_1920x1080_50fps_vp9.webm':\n  Metadata:\n    major_brand     : isom\n    minor_version   : 512\n    compatible_brands: isomiso2avc1mp41\n    encoder         : Lavf62.3.100\n  Stream #0:0(und): Video: vp9, yuv420p(tv, progressive), 1920x1080, q=2-31, 3000 kb/s, 50 fps, 1k tbn (default)\n    Metadata:\n      encoder         : Lavc62.11.100 libvpx-vp9\n      handler_name    : VideoHandler\n      vendor_id       : [0][0][0][0]\n    Side data:\n      cpb: bitrate max/min/avg: 0/0/0 buffer size: 3000000 vbv_delay: N/A\nframe=    0 fps=0.0 q=0.0 size=       0KiB time=N/A bitrate=N/A speed=N/A elapsed=0:00:01.10    \nframe=    0 fps=0.0 q=0.0 size=       0KiB time=N/A bitrate=N/A speed=N/A elapsed=0:00:02.01    \nframe=    6 fps=2.3 q=41.0 size=       1KiB time=00:00:00.12 bitrate=  42.3kbits/s speed=0.0469x elapsed=0:00:02.55    \nframe=   10 fps=3.2 q=38.0 size=       1KiB time=00:00:00.20 bitrate=  25.4kbits/s speed=0.0644x elapsed=0:00:03.10    \nframe=   13 fps=3.5 q=38.0 size=       1KiB time=00:00:00.24 bitrate=  21.1kbits/s speed=0.0645x elapsed=0:00:03.71    \nframe=   15 fps=3.5 q=35.0 size=       1KiB time=00:00:00.30 bitrate=  16.9kbits/s speed=0.0695x elapsed=0:00:04.31    \nframe=   18 fps=3.7 q=35.0 size=       1KiB time=00:00:00.36 bitrate=  14.1kbits/s speed=0.0738x elapsed=0:00:04.87    \nframe=   21 fps=3.9 q=35.0 size=       1KiB time=00:00:00.42 bitrate=  12.1kbits/s speed=0.077x elapsed=0:00:05.45    \nframe=   24 fps=4.0 q=35.0 size=       1KiB time=00:00:00.48 bitrate=  10.6kbits/s speed=0.0804x elapsed=0:00:05.97    \nframe=   28 fps=4.3 q=34.0 size=       1KiB time=00:00:00.54 bitrate=   9.4kbits/s speed=0.0823x elapsed=0:00:06.56    \nframe=   31 fps=4.3 q=34.0 size=       1KiB time=00:00:00.62 bitrate=   8.2kbits/s speed=0.0868x elapsed=0:00:07.14    \nframe=   33 fps=4.3 q=35.0 size=       1KiB time=00:00:00.66 bitrate=   7.7kbits/s speed=0.086x elapsed=0:00:07.67    \nframe=   35 fps=4.2 q=32.0 size=       1KiB time=00:00:00.70 bitrate=   7.2kbits/s speed=0.0837x elapsed=0:00:08.35    \nframe=   37 fps=4.1 q=32.0 size=       1KiB time=00:00:00.74 bitrate=   6.9kbits/s speed=0.0826x elapsed=0:00:08.95    \nframe=   40 fps=4.1 q=32.0 size=       1KiB time=00:00:00.78 bitrate=   6.5kbits/s speed=0.0803x elapsed=0:00:09.71    \nframe=   41 fps=3.9 q=32.0 size=       1KiB time=00:00:00.82 bitrate=   6.2kbits/s speed=0.0784x elapsed=0:00:10.45    \nframe=   43 fps=3.9 q=33.0 size=       1KiB time=00:00:00.86 bitrate=   5.9kbits/s speed=0.0779x elapsed=0:00:11.04    \nframe=   44 fps=3.8 q=33.0 size=       1KiB time=00:00:00.88 bitrate=   5.8kbits/s speed=0.0762x elapsed=0:00:11.54    \nframe=   45 fps=3.7 q=24.0 size=       1KiB time=00:00:00.90 bitrate=   5.6kbits/s speed=0.0746x elapsed=0:00:12.06    \nframe=   48 fps=3.8 q=31.0 size=       1KiB time=00:00:00.96 bitrate=   5.3kbits/s speed=0.0762x elapsed=0:00:12.60    \nframe=   52 fps=4.0 q=32.0 size=       1KiB time=00:00:01.04 bitrate=   4.9kbits/s speed=0.0791x elapsed=0:00:13.14    \nframe=   55 fps=4.0 q=32.0 size=       1KiB time=00:00:01.10 bitrate=   4.6kbits/s speed=0.0805x elapsed=0:00:13.66    \nframe=   57 fps=4.0 q=32.0 size=       1KiB time=00:00:01.14 bitrate=   4.4kbits/s speed=0.0804x elapsed=0:00:14.17    \nframe=   60 fps=4.1 q=31.0 size=       1KiB time=00:00:01.20 bitrate=   4.2kbits/s speed=0.0816x elapsed=0:00:14.71    \nframe=   63 fps=4.1 q=32.0 size=       1KiB time=00:00:01.24 bitrate=   4.1kbits/s speed=0.0814x elapsed=0:00:15.23    \nframe=   64 fps=4.0 q=32.0 size=       1KiB time=00:00:01.28 bitrate=   4.0kbits/s speed=0.0809x elapsed=0:00:15.81    \nframe=   66 fps=4.0 q=32.0 size=       1KiB time=00:00:01.32 bitrate=   3.8kbits/s speed=0.0807x elapsed=0:00:16.35    \nframe=   68 fps=4.0 q=32.0 size=       1KiB time=00:00:01.36 bitrate=   3.7kbits/s speed=0.0805x elapsed=0:00:16.89    \nframe=   71 fps=4.1 q=31.0 size=       1KiB time=00:00:01.42 bitrate=   3.6kbits/s speed=0.0815x elapsed=0:00:17.41    \nframe=   73 fps=4.1 q=31.0 size=       1KiB time=00:00:01.46 bitrate=   3.5kbits/s speed=0.0813x elapsed=0:00:17.95    \nframe=   75 fps=4.1 q=32.0 size=       1KiB time=00:00:01.50 bitrate=   3.4kbits/s speed=0.0812x elapsed=0:00:18.47    \nframe=   77 fps=4.1 q=32.0 size=       1KiB time=00:00:01.54 bitrate=   3.3kbits/s speed=0.0811x elapsed=0:00:18.99    \nframe=   78 fps=4.0 q=23.0 size=       1KiB time=00:00:01.56 bitrate=   3.3kbits/s speed=0.0799x elapsed=0:00:19.53    \nframe=   82 fps=4.1 q=31.0 size=       1KiB time=00:00:01.64 bitrate=   3.1kbits/s speed=0.0818x elapsed=0:00:20.05    \nframe=   84 fps=4.1 q=32.0 size=       1KiB time=00:00:01.68 bitrate=   3.0kbits/s speed=0.0817x elapsed=0:00:20.57    \nframe=   86 fps=4.1 q=32.0 size=       1KiB time=00:00:01.72 bitrate=   2.9kbits/s speed=0.0815x elapsed=0:00:21.09    \nframe=   88 fps=4.1 q=32.0 size=       1KiB time=00:00:01.76 bitrate=   2.9kbits/s speed=0.0813x elapsed=0:00:21.63    \nframe=   89 fps=4.0 q=23.0 size=       1KiB time=00:00:01.76 bitrate=   2.9kbits/s speed=0.0794x elapsed=0:00:22.17    \nframe=   92 fps=4.0 q=31.0 size=       1KiB time=00:00:01.84 bitrate=   2.8kbits/s speed=0.0808x elapsed=0:00:22.77    \nframe=   94 fps=4.0 q=31.0 size=       1KiB time=00:00:01.88 bitrate=   2.7kbits/s speed=0.0808x elapsed=0:00:23.28    \nframe=   96 fps=4.0 q=32.0 size=       1KiB time=00:00:01.92 bitrate=   2.6kbits/s speed=0.0807x elapsed=0:00:23.80    \nframe=   98 fps=4.0 q=32.0 size=       1KiB time=00:00:01.96 bitrate=   2.6kbits/s speed=0.0805x elapsed=0:00:24.34    \nframe=   99 fps=4.0 q=32.0 size=       1KiB time=00:00:01.98 bitrate=   2.6kbits/s speed=0.0796x elapsed=0:00:24.86    \nframe=  102 fps=4.0 q=30.0 size=       1KiB time=00:00:02.04 bitrate=   2.5kbits/s speed=0.0804x elapsed=0:00:25.38    \nframe=  104 fps=4.0 q=31.0 size=       1KiB time=00:00:02.08 bitrate=   2.4kbits/s speed=0.0803x elapsed=0:00:25.88    \nframe=  107 fps=4.1 q=32.0 size=       1KiB time=00:00:02.14 bitrate=   2.4kbits/s speed=0.081x elapsed=0:00:26.41    \nframe=  108 fps=4.0 q=32.0 size=       1KiB time=00:00:02.16 bitrate=   2.3kbits/s speed=0.0801x elapsed=0:00:26.96    \nframe=  110 fps=4.0 q=32.0 size=       1KiB time=00:00:02.20 bitrate=   2.3kbits/s speed=0.0799x elapsed=0:00:27.55    \nframe=  113 fps=4.0 q=31.0 size=       1KiB time=00:00:02.26 bitrate=   2.2kbits/s speed=0.0805x elapsed=0:00:28.08    \nframe=  115 fps=4.0 q=32.0 size=       1KiB time=00:00:02.30 bitrate=   2.2kbits/s speed=0.0803x elapsed=0:00:28.62    \nframe=  117 fps=4.0 q=32.0 size=       1KiB time=00:00:02.34 bitrate=   2.2kbits/s speed=0.0803x elapsed=0:00:29.14    \nframe=  119 fps=4.0 q=32.0 size=       1KiB time=00:00:02.38 bitrate=   2.1kbits/s speed=0.0801x elapsed=0:00:29.71    \nframe=  120 fps=4.0 q=23.0 size=       1KiB time=00:00:02.40 bitrate=   2.1kbits/s speed=0.0792x elapsed=0:00:30.28    \nframe=  123 fps=4.0 q=31.0 size=       1KiB time=00:00:02.46 bitrate=   2.1kbits/s speed=0.0799x elapsed=0:00:30.80    \nframe=  125 fps=4.0 q=31.0 size=       1KiB time=00:00:02.50 bitrate=   2.0kbits/s speed=0.0798x elapsed=0:00:31.32    \nframe=  127 fps=4.0 q=32.0 size=       1KiB time=00:00:02.54 bitrate=   2.0kbits/s speed=0.0798x elapsed=0:00:31.84    \nframe=  128 fps=4.0 q=32.0 size=       1KiB time=00:00:02.56 bitrate=   2.0kbits/s speed=0.0791x elapsed=0:00:32.36    \nframe=  128 fps=3.9 q=32.0 size=       1KiB time=00:00:02.56 bitrate=   2.0kbits/s speed=0.0778x elapsed=0:00:32.92    \nframe=  131 fps=3.9 q=30.0 size=    2048KiB time=00:00:02.62 bitrate=6403.5kbits/s speed=0.0783x elapsed=0:00:33.44    \nframe=  134 fps=3.9 q=32.0 size=    2048KiB time=00:00:02.68 bitrate=6260.2kbits/s speed=0.0789x elapsed=0:00:33.96    \nframe=  136 fps=3.9 q=32.0 size=    2048KiB time=00:00:02.72 bitrate=6168.1kbits/s speed=0.0788x elapsed=0:00:34.49    \nframe=  138 fps=3.9 q=32.0 size=    2048KiB time=00:00:02.76 bitrate=6078.7kbits/s speed=0.0788x elapsed=0:00:35.02    \nframe=  139 fps=3.9 q=32.0 size=    2048KiB time=00:00:02.78 bitrate=6035.0kbits/s speed=0.0781x elapsed=0:00:35.57    \nframe=  141 fps=3.9 q=32.0 size=    2048KiB time=00:00:02.82 bitrate=5949.4kbits/s speed=0.0781x elapsed=0:00:36.09    \nframe=  144 fps=3.9 q=31.0 size=    2048KiB time=00:00:02.88 bitrate=5825.4kbits/s speed=0.0787x elapsed=0:00:36.61    \nframe=  146 fps=3.9 q=31.0 size=    2048KiB time=00:00:02.92 bitrate=5745.6kbits/s speed=0.0786x elapsed=0:00:37.15    \nframe=  147 fps=3.9 q=32.0 size=    2048KiB time=00:00:02.94 bitrate=5706.5kbits/s speed=0.078x elapsed=0:00:37.69    \nframe=  150 fps=3.9 q=32.0 size=    2048KiB time=00:00:03.00 bitrate=5592.4kbits/s speed=0.0784x elapsed=0:00:38.24    \nframe=  152 fps=3.9 q=32.0 size=    2048KiB time=00:00:03.04 bitrate=5518.8kbits/s speed=0.0784x elapsed=0:00:38.76    \nframe=  154 fps=3.9 q=31.0 size=    2048KiB time=00:00:03.08 bitrate=5447.1kbits/s speed=0.0784x elapsed=0:00:39.30    \nframe=  156 fps=3.9 q=31.0 size=    2048KiB time=00:00:03.12 bitrate=5377.3kbits/s speed=0.0783x elapsed=0:00:39.84    \nframe=  157 fps=3.9 q=31.0 size=    2048KiB time=00:00:03.14 bitrate=5343.1kbits/s speed=0.0778x elapsed=0:00:40.37    \nframe=  160 fps=3.9 q=32.0 size=    2048KiB time=00:00:03.20 bitrate=5242.9kbits/s speed=0.0782x elapsed=0:00:40.91    \nframe=  161 fps=3.9 q=32.0 size=    2048KiB time=00:00:03.22 bitrate=5210.3kbits/s speed=0.0777x elapsed=0:00:41.43    \nframe=  163 fps=3.9 q=32.0 size=    2048KiB time=00:00:03.26 bitrate=5146.4kbits/s speed=0.0777x elapsed=0:00:41.95    \nframe=  165 fps=3.9 q=30.0 size=    2048KiB time=00:00:03.30 bitrate=5084.0kbits/s speed=0.0777x elapsed=0:00:42.47    \nframe=  167 fps=3.9 q=31.0 size=    2048KiB time=00:00:03.34 bitrate=5023.1kbits/s speed=0.0777x elapsed=0:00:42.98    \nframe=  170 fps=3.9 q=31.0 size=    2048KiB time=00:00:03.40 bitrate=4934.5kbits/s speed=0.0782x elapsed=0:00:43.50    \nframe=  172 fps=3.9 q=32.0 size=    2048KiB time=00:00:03.44 bitrate=4877.1kbits/s speed=0.0781x elapsed=0:00:44.02    \nframe=  173 fps=3.9 q=23.0 size=    2048KiB time=00:00:03.46 bitrate=4848.9kbits/s speed=0.0777x elapsed=0:00:44.54    \nframe=  176 fps=3.9 q=31.0 size=    2048KiB time=00:00:03.52 bitrate=4766.3kbits/s speed=0.0781x elapsed=0:00:45.09    \nframe=  178 fps=3.9 q=32.0 size=    2048KiB time=00:00:03.56 bitrate=4712.7kbits/s speed=0.0781x elapsed=0:00:45.60    \nframe=  181 fps=3.9 q=33.0 size=    2048KiB time=00:00:03.62 bitrate=4634.6kbits/s speed=0.0785x elapsed=0:00:46.12    \nframe=  183 fps=3.9 q=33.0 size=    2048KiB time=00:00:03.66 bitrate=4583.9kbits/s speed=0.0784x elapsed=0:00:46.66    \nframe=  185 fps=3.9 q=33.0 size=    2048KiB time=00:00:03.68 bitrate=4559.0kbits/s speed=0.078x elapsed=0:00:47.20    \nframe=  187 fps=3.9 q=32.0 size=    2048KiB time=00:00:03.74 bitrate=4485.9kbits/s speed=0.0783x elapsed=0:00:47.74    \nframe=  189 fps=3.9 q=32.0 size=    2048KiB time=00:00:03.78 bitrate=4438.4kbits/s speed=0.0783x elapsed=0:00:48.26    \nframe=  192 fps=3.9 q=33.0 size=    2048KiB time=00:00:03.84 bitrate=4369.1kbits/s speed=0.0787x elapsed=0:00:48.78    \nframe=  194 fps=3.9 q=33.0 size=    2048KiB time=00:00:03.88 bitrate=4324.0kbits/s speed=0.0787x elapsed=0:00:49.32    \nframe=  196 fps=3.9 q=33.0 size=    2048KiB time=00:00:03.92 bitrate=4279.9kbits/s speed=0.0786x elapsed=0:00:49.84    \nframe=  199 fps=4.0 q=32.0 size=    2048KiB time=00:00:03.98 bitrate=4215.4kbits/s speed=0.079x elapsed=0:00:50.37    \nframe=  202 fps=4.0 q=37.0 size=    2048KiB time=00:00:04.02 bitrate=4173.4kbits/s speed=0.079x elapsed=0:00:50.88    \nframe=  204 fps=4.0 q=38.0 size=    2048KiB time=00:00:04.08 bitrate=4112.1kbits/s speed=0.0794x elapsed=0:00:51.41    \nframe=  205 fps=3.9 q=37.0 size=    2048KiB time=00:00:04.10 bitrate=4092.0kbits/s speed=0.0789x elapsed=0:00:51.95    \nframe=  208 fps=4.0 q=36.0 size=    2048KiB time=00:00:04.16 bitrate=4033.0kbits/s speed=0.0793x elapsed=0:00:52.48    \nframe=  211 fps=4.0 q=35.0 size=    2048KiB time=00:00:04.22 bitrate=3975.6kbits/s speed=0.0796x elapsed=0:00:52.99    \nframe=  213 fps=4.0 q=35.0 size=    2048KiB time=00:00:04.26 bitrate=3938.3kbits/s speed=0.0796x elapsed=0:00:53.53    \nframe=  214 fps=4.0 q=35.0 size=    2048KiB time=00:00:04.28 bitrate=3919.9kbits/s speed=0.0792x elapsed=0:00:54.05    \nframe=  216 fps=4.0 q=36.0 size=    2048KiB time=00:00:04.32 bitrate=3883.6kbits/s speed=0.0792x elapsed=0:00:54.56    \nframe=  216 fps=3.9 q=36.0 size=    2048KiB time=00:00:04.32 bitrate=3883.6kbits/s speed=0.0784x elapsed=0:00:55.09    \nframe=  219 fps=3.9 q=34.0 size=    2048KiB time=00:00:04.38 bitrate=3830.4kbits/s speed=0.0787x elapsed=0:00:55.64    \nframe=  221 fps=3.9 q=34.0 size=    2048KiB time=00:00:04.42 bitrate=3795.8kbits/s speed=0.0787x elapsed=0:00:56.17    \nframe=  223 fps=3.9 q=35.0 size=    2048KiB time=00:00:04.44 bitrate=3778.7kbits/s speed=0.0783x elapsed=0:00:56.72    \nframe=  224 fps=3.9 q=35.0 size=    2048KiB time=00:00:04.48 bitrate=3744.9kbits/s speed=0.0782x elapsed=0:00:57.29    \nframe=  226 fps=3.9 q=36.0 size=    2048KiB time=00:00:04.52 bitrate=3711.8kbits/s speed=0.0781x elapsed=0:00:57.84    \nframe=  226 fps=3.9 q=36.0 size=    2048KiB time=00:00:04.52 bitrate=3711.8kbits/s speed=0.0774x elapsed=0:00:58.38    \nframe=  226 fps=3.8 q=36.0 size=    2048KiB time=00:00:04.52 bitrate=3711.8kbits/s speed=0.0767x elapsed=0:00:58.89    \nframe=  226 fps=3.8 q=36.0 size=    2048KiB time=00:00:04.52 bitrate=3711.8kbits/s speed=0.0761x elapsed=0:00:59.40    \nframe=  226 fps=3.8 q=36.0 size=    2048KiB time=00:00:04.52 bitrate=3711.8kbits/s speed=0.0754x elapsed=0:00:59.92    \nframe=  226 fps=3.7 q=36.0 size=    2048KiB time=00:00:04.52 bitrate=3711.8kbits/s speed=0.0748x elapsed=0:01:00.46    \nframe=  226 fps=3.7 q=36.0 size=    2048KiB time=00:00:04.52 bitrate=3711.8kbits/s speed=0.0741x elapsed=0:01:00.98    \nframe=  226 fps=3.7 q=36.0 size=    2048KiB time=00:00:04.52 bitrate=3711.8kbits/s speed=0.0735x elapsed=0:01:01.52    \nframe=  226 fps=3.6 q=36.0 size=    2048KiB time=00:00:04.52 bitrate=3711.8kbits/s speed=0.0728x elapsed=0:01:02.04    \nframe=  226 fps=3.6 q=36.0 size=    2048KiB time=00:00:04.52 bitrate=3711.8kbits/s speed=0.0722x elapsed=0:01:02.57    \n[out#0/webm @ 00000220a21ff040] video:4480KiB audio:0KiB subtitle:0KiB other streams:0KiB global headers:0KiB muxing overhead: 0.053891%\nframe=  250 fps=4.0 q=36.0 Lsize=    4482KiB time=00:00:05.00 bitrate=7343.3kbits/s speed=0.0793x elapsed=0:01:03.02    \n",
  "seconds": 63.57032084465027,
  "probe_out": {}
}